<svg xmlns="http://www.w3.org/2000/svg" width="199" height="585.743"><g fill="none" fill-rule="evenodd"><path fill="#000" d="M74.26 142.858c.81.13 1.351.898 1.22 1.709a1.483 1.483 0 0 1-1.708 1.22c-13.31-2.266-23.664-9.319-31.24-17.643-7.861-8.63-12.734-18.699-14.817-26.17-.558.026-1.107.017-1.656-.018-2.755-.165-5.962-1.43-9.161-3.434C12.635 95.846 8.32 91.8 5.148 87.25 1.906 82.613-.169 77.418.128 72.536c.14-2.284.793-4.49 2.074-6.53.358-.566.741-1.115 1.15-1.647a19.885 19.885 0 0 1-1.028-1.77C.224 58.546-.552 53.786.407 48.87c.366-1.892.993-3.8 1.891-5.701 3.766-7.95 9.24-14.2 15.524-18.437 6.572-4.437 14.042-6.668 21.38-6.363 3.139.13 6.18.845 9.022 1.996C52.13 13.809 56.836 9.18 61.926 6.033 69.475 1.36 77.816-.017 85.556.41c10.233.558 19.543 5.213 25.95 10.897 5.29-3.714 10.99-5.867 16.665-6.686a37.534 37.534 0 0 1 16.465 1.29c5.186 1.595 9.928 4.297 13.807 7.854 5.203 4.777 8.838 11.114 9.901 18.445.445 3.095.89 7.933.794 12.875 2.78.375 5.587 1.02 8.28 1.97 4.027 1.413 7.548 3.383 10.477 6.007 2.955 2.632 5.3 5.91 6.956 9.928 1.551 3.757 2.283 7.81 1.978 11.585-.183 2.284-.75 4.481-1.743 6.46.724 1.02 1.36 2.11 1.883 3.234 1.238 2.667 2.048 6.66 2.031 10.905-.009 3.652-.62 7.514-2.075 10.931-1.168 2.737-2.589 4.864-4.201 6.46-2.528 2.492-5.509 3.66-8.76 3.826-3.129.157-6.476-.636-9.876-2.083-6.432-2.738-13.135-7.863-18.923-13.285-.697.296-1.412.566-2.135.81-6.694 2.267-14.304 2.293-20.022-.601l-.27-.14c-3.87-1.96-7.906-4.01-11.872-5.927-.523.279-1.054.558-1.595.846-3.59 1.9-7.6 4.018-12.229 6.102-5.64 2.545-10.294 1.185-13.327-1.657-2.066-1.944-3.356-4.594-3.67-7.183-.322-2.71.41-5.37 2.406-7.165 2.362-2.118 6.424-2.929 12.482-.933 4.716 1.552 10.207 3.975 15.864 6.678 12.49-6.503 20.283-9.223 33.131 3.826.593.602 1.194 1.195 1.805 1.796 2.004-1.029 3.835-2.292 5.36-3.766 2.362-2.275 4-5.056 4.48-8.22.55-3.644-.444-7.863-3.678-12.51-3.931-5.64-10.346-8.507-17.04-9.449-4.411-.619-8.935-.41-12.988.384a34.71 34.71 0 0 0-4.149 1.072c.34 2.127.497 4.48.453 7.096-.026 1.334-.392 2.44-.984 3.339-.637.967-1.526 1.665-2.51 2.11a7.143 7.143 0 0 1-3.025.61c-1.247-.018-2.459-.358-3.417-.994-.941-.628-1.578-1.526-1.953-2.554-.374-1.055-.47-2.232-.305-3.357.314-2.24 1.883-4.28 4.306-5.97 1.15-.803 2.51-1.535 4.019-2.18-.375-1.447-.855-2.737-1.43-3.88-2.118-4.192-5.622-6.415-9.928-7.165-4.515-.793-9.91-.017-15.559 1.787-11.296 3.6-23.48 11.246-31.815 18.777a57.428 57.428 0 0 0-5.072 5.17 43.554 43.554 0 0 0-3.905 5.265 33.982 33.982 0 0 0-1.892 3.426c-3.495 7.304-3.478 14.426-.75 20.868 2.772 6.538 8.334 12.422 15.89 17.147a62.588 62.588 0 0 0 6.276 3.435c16.492 7.889 35.214-.497 52.498-8.23a724.68 724.68 0 0 1 6.903-3.059c1.587-.68 3.077-1.125 4.49-1.351 3.59-.576 6.536.253 8.942 2.03 1.142.846 2.153 1.901 3.033 3.113 2.973-.445 6.363-.575 9.894-.366 7.4.418 15.462 2.266 21.32 5.614 7.696 4.402 11.732 11.253 6.302 20.746-7.375 12.902-18.802 16.484-31.336 15.49-8.873-.705-18.27-3.739-27.124-7.357l-2.598 31.426c-.07.819-.784 1.43-1.604 1.36a1.485 1.485 0 0 1-1.36-1.605l2.676-32.393a252.138 252.138 0 0 1-6.816-3.034c-9.945-4.568-11.941-9.519-10.25-13.198.802-1.752 2.458-3.147 4.506-4.036 1.944-.845 4.262-1.246 6.511-1.054 5.378.444 10.46 4.036 9.754 12.56l-.567 6.861c8.873 3.679 18.304 6.8 27.1 7.497 11.436.907 21.843-2.328 28.52-14 4.34-7.592 1.045-13.119-5.204-16.684-5.44-3.112-13.013-4.83-20.004-5.23-2.868-.166-5.622-.105-8.063.156.236.471.462.95.68 1.447 1.212 2.816 2.04 6.05 2.563 9.302.06.4.122.854.174 1.35 2.981 1.143 5.892 2.284 8.002 3.383 1.786.933 2.902 2.092 3.486 3.33a5.24 5.24 0 0 1 .366 3.539c-.261 1.09-.837 2.1-1.63 2.938-1.115 1.185-2.676 2.04-4.34 2.266-5.867.802-7.601-4.978-8.333-10.347a71.15 71.15 0 0 1-.332-2.99c-5.116-1.953-10.04-3.87-11.383-5.736-2.571-3.591-1.804-6.45 1.107-8.534 1.185-.846 2.79-1.525 4.698-2.04-.48-.523-.985-.994-1.525-1.395-1.778-1.316-3.984-1.926-6.712-1.49-1.15.183-2.406.558-3.783 1.15a526.571 526.571 0 0 0-6.868 3.034c-17.877 8.002-37.253 16.676-54.984 8.194a66.7 66.7 0 0 1-6.563-3.591c-8.071-5.047-14.042-11.402-17.049-18.524-3.05-7.218-3.077-15.168.81-23.3a38.185 38.185 0 0 1 2.049-3.722c1.168-1.875 2.554-3.749 4.166-5.623a59.947 59.947 0 0 1 5.343-5.44C72.186 62.608 84.79 54.7 96.495 50.97c6.093-1.944 11.968-2.772 16.971-1.891 5.212.915 9.466 3.626 12.063 8.76.637 1.247 1.16 2.642 1.578 4.185a38.906 38.906 0 0 1 4.201-1.073c4.34-.854 9.213-1.072 13.964-.4 7.452 1.046 14.608 4.28 19.08 10.695 3.713 5.327 4.837 10.278 4.184 14.645-.584 3.853-2.554 7.2-5.37 9.92-1.499 1.447-3.25 2.72-5.142 3.775 5.36 4.925 11.444 9.484 17.223 11.951 3.016 1.281 5.927 1.988 8.577 1.857 2.528-.131 4.847-1.038 6.817-2.981 1.342-1.325 2.545-3.138 3.556-5.51 1.29-3.033 1.84-6.494 1.848-9.772.008-3.809-.689-7.34-1.77-9.658a17.065 17.065 0 0 0-.941-1.761c-.105.13-.218.262-.331.392-1.595 1.83-3.382 3.165-5.1 3.827-1.29.506-2.57.645-3.739.357-1.237-.305-2.31-1.046-3.094-2.31-.715-1.142-1.185-2.71-1.307-4.768-.166-2.685.348-4.568 1.307-5.762.88-1.09 2.057-1.604 3.426-1.63 1.168-.026 2.458.331 3.756.985 1.57.793 3.217 2.049 4.716 3.618.488-1.3.776-2.685.898-4.124.27-3.32-.384-6.895-1.752-10.225-1.473-3.574-3.565-6.494-6.189-8.839-2.64-2.354-5.831-4.14-9.483-5.422-2.423-.854-4.942-1.438-7.435-1.796a48.717 48.717 0 0 1-.506 4.49c-.549 3.268-1.508 6.206-3.068 8.307-1.717 2.31-4.07 3.6-7.278 3.252-1.822-.192-3.896-.942-6.25-2.363-4.079-2.458-6.136-4.908-6.659-7.174-.427-1.857.114-3.522 1.395-4.96 1.124-1.255 2.833-2.301 4.95-3.103 3.784-1.421 9.03-2.092 14.583-1.718.07-4.654-.348-9.214-.775-12.151-.96-6.616-4.254-12.344-8.97-16.676-3.547-3.26-7.897-5.727-12.664-7.2a34.718 34.718 0 0 0-15.176-1.186c-5.055.732-10.137 2.615-14.896 5.84.663.68 1.273 1.378 1.848 2.075 2.075 2.537 3.574 5.152 4.332 7.619.81 2.632.81 5.117-.183 7.209-1.133 2.406-3.486 4.21-7.287 5.021-3.26.706-6.101.48-8.271-.453-1.674-.715-2.964-1.848-3.775-3.304-.802-1.447-1.107-3.173-.828-5.1.384-2.65 1.892-5.692 4.794-8.856a44.897 44.897 0 0 1 4.76-4.498C103.154 7.976 94.691 3.835 85.4 3.33c-7.217-.392-14.957.88-21.922 5.187-4.628 2.868-8.943 7.087-12.551 13.067 3.347 1.752 6.363 4.097 8.856 6.756 2.423 2.58 4.375 5.474 5.7 8.42 1.342 2.99 2.04 6.05 1.918 8.91-.14 3.32-1.351 6.363-3.888 8.742-1.604 1.509-3.582 2.563-5.692 3.182-2.214.645-4.584.82-6.842.532-4.158-.532-6.894-2.266-8.594-4.733-1.953-2.842-2.432-6.573-2.083-10.522.244-2.79.906-5.692 1.752-8.438 1.115-3.644 2.536-7.017 3.713-9.493.322-.689.662-1.351 1.002-2.005-2.44-.941-5.02-1.525-7.679-1.639-6.703-.279-13.554 1.779-19.603 5.867C13.631 31.12 8.514 36.96 4.984 44.406a21.056 21.056 0 0 0-1.656 4.986c-.828 4.245-.157 8.333 1.639 11.803.14.27.287.54.444.802a25.16 25.16 0 0 1 4.045-3.269c2.928-1.9 6.11-3.068 8.882-3.13 3.913-.087 6.467 2.424 7.609 5.632.532 1.49.75 3.138.654 4.725-.096 1.612-.532 3.19-1.3 4.498-1.455 2.475-4 4.01-7.678 3.295a22.83 22.83 0 0 1-5.465-1.787 21.665 21.665 0 0 1-6.93-5.187c-.183.253-.348.514-.514.776-1.002 1.595-1.508 3.33-1.621 5.126-.253 4.166 1.595 8.708 4.48 12.84 2.946 4.219 6.947 7.976 10.904 10.46 2.79 1.753 5.509 2.842 7.749 2.982.253.017.514.026.776.026-.419-2.145-.558-3.958-.427-5.318.348-3.47 1.115-6.555 2.449-8.821 1.307-2.206 3.138-3.653 5.622-3.975 1.368-.175 2.946.009 4.42.558 1.359.505 2.649 1.325 3.643 2.458 1.307 1.49 2.109 3.54 2.17 5.535.06 1.918-.55 3.792-2.014 5.152-2.99 2.772-5.874 4.673-8.655 5.858-1.22.515-2.414.898-3.582 1.142 1.996 6.93 6.633 16.345 14.103 24.539 7.182 7.889 16.97 14.575 29.53 16.71l-.001.036Zm45.735 21.332c.047-.517.529-.893 1.086-.85.557.044.962.49.915 1.007l-.991 11.137c-.047.517-.529.893-1.086.85-.557-.044-.962-.49-.915-1.007l.991-11.137Zm60.646-121.05c-.495-.167-.765-.7-.585-1.18a.957.957 0 0 1 1.214-.569c4.075 1.399 7.656 3.33 10.625 5.908 2.986 2.587 5.361 5.804 7.035 9.755a.93.93 0 0 1-.522 1.214.977.977 0 0 1-1.25-.506c-1.557-3.671-3.77-6.66-6.54-9.064-2.78-2.412-6.136-4.23-9.977-5.541v-.018ZM65.149 80.747c.291-.41.91-.533 1.38-.28.47.255.61.796.32 1.206-1.306 1.827-2.358 3.646-3.156 5.44a23.605 23.605 0 0 0-1.709 5.483c-.084.475-.592.803-1.136.73-.545-.074-.92-.517-.836-.992a25.566 25.566 0 0 1 1.822-5.843c.845-1.91 1.953-3.827 3.315-5.736v-.008Zm-4.114 22.771a.935.935 0 0 1 .618-1.146.92.92 0 0 1 1.132.625c1.312 4.568 4.04 8.632 7.933 11.846 3.808 3.152 8.73 5.48 14.545 6.661a.93.93 0 0 1 .72 1.086.92.92 0 0 1-1.072.73c-6.106-1.243-11.303-3.71-15.342-7.044-4.177-3.457-7.11-7.842-8.534-12.767v.009Zm-13.804-42.04c.48.062.82.535.763 1.044-.058.509-.506.868-.986.807-4.647-.631-7.695-2.658-9.567-5.543-2.187-3.36-2.717-7.842-2.32-12.596.042-.509.472-.895.953-.85.48.043.845.5.803 1.008-.364 4.36.091 8.412 2.013 11.376 1.599 2.465 4.25 4.202 8.341 4.754Zm118.655 92.857a.868.868 0 0 1-.885-.855.872.872 0 0 1 .828-.914c1.73-.058 3.308-.93 4.475-2.226a7.88 7.88 0 0 0 1.77-3.34c.299-1.22.29-2.525-.128-3.762-.54-1.587-1.763-3.09-3.88-4.229a.897.897 0 0 1-.361-1.196.842.842 0 0 1 1.159-.374c2.543 1.363 4.024 3.223 4.7 5.217.539 1.578.555 3.231.177 4.768a9.622 9.622 0 0 1-2.173 4.104c-1.457 1.628-3.461 2.716-5.674 2.79l-.008.017ZM101.21 15.545c.4.32.452.897.13 1.294-3.411 4.167-5.117 8.067-5.44 11.346-.208 2.113.158 3.96 1.01 5.426.836 1.45 2.15 2.554 3.847 3.21 2.141.828 4.9.949 8.085.172h.017a.917.917 0 0 1 1.114.674.908.908 0 0 1-.679 1.104c-3.577.863-6.71.707-9.19-.25-2.106-.811-3.742-2.192-4.795-4.004-1.036-1.794-1.488-4.012-1.244-6.514.356-3.615 2.184-7.86 5.84-12.329a.931.931 0 0 1 1.305-.129Z"/><path fill="#161616" fill-rule="nonzero" d="M129.5 585.743a1.5 1.5 0 0 1 0-3h6.497l-.002-1.58c-.339-101.41-17.44-177.073-51.237-226.985-8.882-13.117-10.258-28.368-5.472-46.841 3.572-13.79 8.41-24.68 21.917-51.722 1.738-3.48 2.886-5.787 3.962-7.972l.307-.622.458-.933C119.21 219 125.2 201.895 125.5 185.31a1.5 1.5 0 0 1 3 .054c-.31 17.159-6.41 34.58-19.877 62.045l-.306.624-.306.623c-1.126 2.286-2.3 4.648-4.125 8.3l-.4.8c-11.115 22.276-16.206 33.36-19.61 44.375l-.24.787a134.959 134.959 0 0 0-1.446 5.171c-4.587 17.706-3.29 32.088 5.052 44.407C121.604 403.244 138.832 479.99 139 582.74l6.501.002a1.5 1.5 0 0 1 0 3h-16Z"/><path fill="#8FD299" d="M73.772 145.787c-20.815-3.742-38.391-19.427-46.057-43.813-9.356 1.91-36.569-20.664-24.502-37.637-13.224-23.302 19.83-53.696 45.011-43.973 7.644-15.179 34.85-32.121 63.281-9.057C123 .337 170.99-5.251 169.138 45.085c18.362 1.573 33.062 20.252 25.78 36.225 12.173 22.84-5.418 54.385-39.753 19.713-14.589 3.615-4.586 17.8-3.165 19.719 28-3.068 54.655 11.146 30.3 34.803-7.92 5.243-20.8 12.298-51.785-1.208 0 22-10.015 12.478-10.015 10.834 0-13.849-47-19.384-46.728-19.384Z" opacity=".3"/></g></svg>