<svg xmlns="http://www.w3.org/2000/svg" xmlns:xlink="http://www.w3.org/1999/xlink" width="1024" zoomAndPan="magnify" viewBox="0 0 768 263.99999" height="352" preserveAspectRatio="xMidYMid meet" version="1.0"><defs><g/><clipPath id="206bc76307"><path d="M 649.007812 91 L 767.617188 91 L 767.617188 210 L 649.007812 210 Z M 649.007812 91 " clip-rule="nonzero"/></clipPath></defs><g clip-path="url(#206bc76307)"><path fill="#8fd299" d="M 693.980469 91.0625 L 649.585938 209.453125 L 723.574219 209.453125 L 767.972656 91.0625 Z M 693.980469 91.0625 " fill-opacity="1" fill-rule="evenodd"/></g><g fill="#000000" fill-opacity="1"><g transform="translate(1.062078, 208.194406)"><g><path d="M 8.8125 -102.890625 L 8.8125 -111.046875 C 16.59375 -115.597656 22.6875 -120.148438 27.09375 -124.703125 C 31.5 -129.253906 34.878906 -134.691406 37.234375 -141.015625 L 43.625 -141.015625 L 43.625 -113.25 L 73.15625 -113.25 L 73.15625 -102.890625 L 43.625 -102.890625 L 43.625 -35.90625 C 43.625 -30.769531 43.878906 -26.4375 44.390625 -22.90625 C 44.910156 -19.382812 45.753906 -16.554688 46.921875 -14.421875 C 48.097656 -12.296875 49.640625 -10.789062 51.546875 -9.90625 C 53.460938 -9.03125 55.890625 -8.59375 58.828125 -8.59375 C 62.492188 -8.59375 65.613281 -9.363281 68.1875 -10.90625 C 70.757812 -12.445312 73.296875 -15.054688 75.796875 -18.734375 L 81.296875 -14.546875 C 79.242188 -9.109375 75.679688 -4.957031 70.609375 -2.09375 C 65.546875 0.769531 59.269531 2.203125 51.78125 2.203125 C 42.082031 2.203125 34.695312 -0.109375 29.625 -4.734375 C 24.5625 -9.359375 22.03125 -16.003906 22.03125 -24.671875 L 22.03125 -102.890625 Z M 8.8125 -102.890625 "/></g></g></g><g fill="#000000" fill-opacity="1"><g transform="translate(84.345527, 208.194406)"><g><path d="M 48.90625 -35.03125 C 48.90625 -29.007812 49.050781 -24.234375 49.34375 -20.703125 C 49.644531 -17.179688 50.421875 -14.503906 51.671875 -12.671875 C 52.921875 -10.835938 54.71875 -9.625 57.0625 -9.03125 C 59.414062 -8.445312 62.722656 -8.007812 66.984375 -7.71875 L 66.984375 0 L 8.375 0 L 8.375 -7.71875 C 12.632812 -7.863281 16.007812 -8.265625 18.5 -8.921875 C 21 -9.585938 22.910156 -10.800781 24.234375 -12.5625 C 25.554688 -14.320312 26.398438 -16.851562 26.765625 -20.15625 C 27.140625 -23.46875 27.328125 -27.910156 27.328125 -33.484375 L 27.328125 -59.265625 C 27.328125 -69.253906 27.210938 -77.039062 26.984375 -82.625 C 26.765625 -88.207031 26.03125 -92.316406 24.78125 -94.953125 C 23.539062 -97.597656 21.597656 -99.175781 18.953125 -99.6875 C 16.304688 -100.207031 12.632812 -100.46875 7.9375 -100.46875 L 7.9375 -108.1875 L 46.484375 -116.546875 L 49.578125 -89.234375 L 50.453125 -89.234375 C 52.359375 -93.640625 54.742188 -97.675781 57.609375 -101.34375 C 60.472656 -105.019531 63.59375 -108.144531 66.96875 -110.71875 C 70.351562 -113.289062 73.878906 -115.3125 77.546875 -116.78125 C 81.222656 -118.25 84.972656 -118.984375 88.796875 -118.984375 C 93.492188 -118.984375 97.203125 -117.84375 99.921875 -115.5625 C 102.640625 -113.28125 104 -110.234375 104 -106.421875 C 104 -102.890625 102.894531 -100.132812 100.6875 -98.15625 C 98.488281 -96.175781 95.332031 -95.1875 91.21875 -95.1875 C 88.863281 -95.1875 86.878906 -95.476562 85.265625 -96.0625 C 83.648438 -96.644531 82.21875 -97.265625 80.96875 -97.921875 C 79.71875 -98.585938 78.539062 -99.210938 77.4375 -99.796875 C 76.34375 -100.390625 75.132812 -100.6875 73.8125 -100.6875 C 69.84375 -100.6875 65.875 -98.148438 61.90625 -93.078125 C 57.945312 -88.015625 54.863281 -81.59375 52.65625 -73.8125 C 51.476562 -69.550781 50.554688 -64.738281 49.890625 -59.375 C 49.234375 -54.019531 48.90625 -48.398438 48.90625 -42.515625 Z M 48.90625 -35.03125 "/></g></g></g><g fill="#000000" fill-opacity="1"><g transform="translate(189.441306, 208.194406)"><g><path d="M 76.890625 -65.21875 C 68.515625 -61.988281 61.425781 -58.828125 55.625 -55.734375 C 49.832031 -52.648438 45.171875 -49.566406 41.640625 -46.484375 C 38.117188 -43.398438 35.585938 -40.316406 34.046875 -37.234375 C 32.503906 -34.148438 31.734375 -30.992188 31.734375 -27.765625 C 31.734375 -22.910156 33.347656 -18.941406 36.578125 -15.859375 C 39.804688 -12.773438 44.066406 -11.234375 49.359375 -11.234375 C 53.171875 -11.234375 56.726562 -12.1875 60.03125 -14.09375 C 63.34375 -16.007812 66.242188 -18.617188 68.734375 -21.921875 C 71.234375 -25.222656 73.21875 -29.113281 74.6875 -33.59375 C 76.15625 -38.070312 76.890625 -42.8125 76.890625 -47.8125 Z M 76.890625 -74.6875 L 76.890625 -83.71875 C 76.890625 -101.644531 69.253906 -110.609375 53.984375 -110.609375 C 51.484375 -110.609375 49.351562 -110.382812 47.59375 -109.9375 C 45.832031 -109.5 44.363281 -108.765625 43.1875 -107.734375 C 42.007812 -106.710938 40.941406 -105.242188 39.984375 -103.328125 C 39.035156 -101.421875 38.117188 -99.070312 37.234375 -96.28125 C 35.617188 -92.019531 34.039062 -89.191406 32.5 -87.796875 C 30.957031 -86.398438 28.71875 -85.703125 25.78125 -85.703125 C 18.4375 -85.703125 14.765625 -89.375 14.765625 -96.71875 C 14.765625 -103.769531 18.507812 -109.242188 26 -113.140625 C 33.488281 -117.035156 44.140625 -118.984375 57.953125 -118.984375 C 72.640625 -118.984375 83.066406 -116.375 89.234375 -111.15625 C 95.398438 -105.9375 98.484375 -97.085938 98.484375 -84.609375 L 98.484375 -35.25 C 98.484375 -18.507812 101.789062 -10.140625 108.40625 -10.140625 C 110.457031 -10.140625 112.4375 -10.394531 114.34375 -10.90625 C 116.257812 -11.414062 117.878906 -12.773438 119.203125 -14.984375 L 122.28125 -9.6875 C 120.519531 -6.3125 117.285156 -3.484375 112.578125 -1.203125 C 107.878906 1.066406 102.960938 2.203125 97.828125 2.203125 C 91.359375 2.203125 86.546875 0.144531 83.390625 -3.96875 C 80.234375 -8.082031 78.65625 -13.882812 78.65625 -21.375 L 77.5625 -21.375 C 73.738281 -14.175781 68.445312 -8.484375 61.6875 -4.296875 C 54.9375 -0.109375 47.445312 1.984375 39.21875 1.984375 C 29.96875 1.984375 22.695312 -0.363281 17.40625 -5.0625 C 12.113281 -9.769531 9.46875 -16.085938 9.46875 -24.015625 C 9.46875 -27.535156 10.09375 -30.910156 11.34375 -34.140625 C 12.59375 -37.378906 14.613281 -40.46875 17.40625 -43.40625 C 20.195312 -46.34375 23.867188 -49.242188 28.421875 -52.109375 C 32.972656 -54.972656 38.554688 -57.875 45.171875 -60.8125 Z M 76.890625 -74.6875 "/></g></g></g><g fill="#000000" fill-opacity="1"><g transform="translate(311.502249, 208.194406)"><g><path d="M 48.6875 -35.25 C 48.6875 -29.082031 48.832031 -24.234375 49.125 -20.703125 C 49.425781 -17.179688 50.195312 -14.503906 51.4375 -12.671875 C 52.6875 -10.835938 54.488281 -9.625 56.84375 -9.03125 C 59.195312 -8.445312 62.503906 -8.007812 66.765625 -7.71875 L 66.765625 0 L 8.15625 0 L 8.15625 -7.71875 C 12.414062 -8.007812 15.789062 -8.445312 18.28125 -9.03125 C 20.78125 -9.625 22.691406 -10.800781 24.015625 -12.5625 C 25.335938 -14.320312 26.179688 -16.851562 26.546875 -20.15625 C 26.910156 -23.46875 27.09375 -27.910156 27.09375 -33.484375 L 27.09375 -61.6875 C 27.09375 -70.0625 26.984375 -77.039062 26.765625 -82.625 C 26.546875 -88.207031 26.144531 -92.023438 25.5625 -94.078125 C 25.113281 -95.984375 24.597656 -97.488281 24.015625 -98.59375 C 23.429688 -99.695312 22.476562 -100.578125 21.15625 -101.234375 C 19.832031 -101.898438 18.101562 -102.34375 15.96875 -102.5625 C 13.84375 -102.78125 11.09375 -102.890625 7.71875 -102.890625 L 7.71875 -110.609375 L 43.625 -118.984375 L 46.484375 -96.9375 L 47.59375 -96.9375 C 54.195312 -104.4375 61.132812 -109.984375 68.40625 -113.578125 C 75.675781 -117.179688 83.71875 -118.984375 92.53125 -118.984375 C 101.789062 -118.984375 109.578125 -117.109375 115.890625 -113.359375 C 122.203125 -109.609375 126.609375 -104.210938 129.109375 -97.171875 L 130 -97.171875 C 135.425781 -104.066406 142.03125 -109.425781 149.8125 -113.25 C 157.601562 -117.070312 165.90625 -118.984375 174.71875 -118.984375 C 181.625 -118.984375 187.90625 -117.84375 193.5625 -115.5625 C 199.21875 -113.28125 203.515625 -110.160156 206.453125 -106.203125 C 209.085938 -102.816406 210.957031 -98.367188 212.0625 -92.859375 C 213.164062 -87.359375 213.71875 -79.832031 213.71875 -70.28125 L 213.71875 -35.25 C 213.71875 -29.226562 213.898438 -24.453125 214.265625 -20.921875 C 214.628906 -17.398438 215.398438 -14.6875 216.578125 -12.78125 C 217.753906 -10.875 219.550781 -9.625 221.96875 -9.03125 C 224.394531 -8.445312 227.738281 -8.007812 232 -7.71875 L 232 0 L 173.390625 0 L 173.390625 -7.71875 C 177.503906 -7.863281 180.8125 -8.265625 183.3125 -8.921875 C 185.8125 -9.585938 187.722656 -10.835938 189.046875 -12.671875 C 190.367188 -14.503906 191.210938 -17.035156 191.578125 -20.265625 C 191.941406 -23.503906 192.125 -27.910156 192.125 -33.484375 L 192.125 -61.25 C 192.125 -69.625 191.679688 -76.710938 190.796875 -82.515625 C 189.921875 -88.316406 188.453125 -93.015625 186.390625 -96.609375 C 184.335938 -100.210938 181.65625 -102.820312 178.34375 -104.4375 C 175.039062 -106.050781 171.039062 -106.859375 166.34375 -106.859375 C 159.882812 -106.859375 153.828125 -105.054688 148.171875 -101.453125 C 142.515625 -97.859375 138.070312 -93.050781 134.84375 -87.03125 C 134.101562 -85.5625 133.476562 -84.128906 132.96875 -82.734375 C 132.457031 -81.335938 132.050781 -79.796875 131.75 -78.109375 C 131.457031 -76.421875 131.273438 -74.398438 131.203125 -72.046875 C 131.128906 -69.691406 131.09375 -66.753906 131.09375 -63.234375 L 131.09375 -35.25 C 131.09375 -29.226562 131.238281 -24.453125 131.53125 -20.921875 C 131.820312 -17.398438 132.59375 -14.6875 133.84375 -12.78125 C 135.09375 -10.875 136.96875 -9.625 139.46875 -9.03125 C 141.96875 -8.445312 145.347656 -8.007812 149.609375 -7.71875 L 149.609375 0 L 91 0 L 91 -7.71875 C 95.113281 -8.007812 98.414062 -8.445312 100.90625 -9.03125 C 103.40625 -9.625 105.28125 -10.800781 106.53125 -12.5625 C 107.78125 -14.320312 108.585938 -16.851562 108.953125 -20.15625 C 109.316406 -23.46875 109.5 -27.910156 109.5 -33.484375 L 109.5 -61.25 C 109.5 -69.769531 109.054688 -76.929688 108.171875 -82.734375 C 107.296875 -88.535156 105.863281 -93.234375 103.875 -96.828125 C 101.894531 -100.429688 99.289062 -103.003906 96.0625 -104.546875 C 92.832031 -106.085938 88.867188 -106.859375 84.171875 -106.859375 C 77.554688 -106.859375 71.347656 -105.054688 65.546875 -101.453125 C 59.742188 -97.859375 55.375 -93.050781 52.4375 -87.03125 C 51.707031 -85.5625 51.082031 -84.128906 50.5625 -82.734375 C 50.050781 -81.335938 49.644531 -79.796875 49.34375 -78.109375 C 49.050781 -76.421875 48.867188 -74.398438 48.796875 -72.046875 C 48.722656 -69.691406 48.6875 -66.753906 48.6875 -63.234375 Z M 48.6875 -35.25 "/></g></g></g><g fill="#000000" fill-opacity="1"><g transform="translate(547.912678, 208.194406)"><g><path d="M 18.953125 0 L 14.09375 0 L 14.09375 -37.890625 L 19.609375 -37.890625 C 25.335938 -17.179688 35.765625 -6.828125 50.890625 -6.828125 C 56.765625 -6.828125 61.425781 -8.257812 64.875 -11.125 C 68.332031 -13.988281 70.0625 -18.359375 70.0625 -24.234375 C 70.0625 -26.441406 69.726562 -28.316406 69.0625 -29.859375 C 68.40625 -31.398438 67.160156 -33.015625 65.328125 -34.703125 C 63.492188 -36.390625 60.921875 -38.332031 57.609375 -40.53125 C 54.304688 -42.738281 49.9375 -45.53125 44.5 -48.90625 C 39.507812 -52 35.175781 -54.863281 31.5 -57.5 C 27.832031 -60.144531 24.75 -62.828125 22.25 -65.546875 C 19.75 -68.265625 17.875 -71.164062 16.625 -74.25 C 15.382812 -77.332031 14.765625 -80.929688 14.765625 -85.046875 C 14.765625 -90.035156 15.609375 -94.625 17.296875 -98.8125 C 18.984375 -103 21.296875 -106.5625 24.234375 -109.5 C 27.171875 -112.4375 30.625 -114.75 34.59375 -116.4375 C 38.5625 -118.132812 42.894531 -118.984375 47.59375 -118.984375 C 51.5625 -118.984375 55.671875 -118.359375 59.921875 -117.109375 C 64.179688 -115.859375 67.929688 -114.203125 71.171875 -112.140625 L 75.578125 -116.78125 L 79.765625 -116.78125 L 79.765625 -85.046875 L 74.03125 -85.046875 C 70.800781 -94.003906 67.273438 -100.390625 63.453125 -104.203125 C 59.628906 -108.023438 54.929688 -109.9375 49.359375 -109.9375 C 44.359375 -109.9375 40.351562 -108.613281 37.34375 -105.96875 C 34.332031 -103.332031 32.828125 -99.664062 32.828125 -94.96875 C 32.828125 -92.46875 33.226562 -90.296875 34.03125 -88.453125 C 34.84375 -86.617188 36.128906 -84.820312 37.890625 -83.0625 C 39.660156 -81.300781 41.898438 -79.5 44.609375 -77.65625 C 47.328125 -75.820312 50.597656 -73.734375 54.421875 -71.390625 C 60.734375 -67.421875 66.128906 -63.894531 70.609375 -60.8125 C 75.085938 -57.726562 78.722656 -54.679688 81.515625 -51.671875 C 84.304688 -48.660156 86.363281 -45.535156 87.6875 -42.296875 C 89.007812 -39.066406 89.671875 -35.394531 89.671875 -31.28125 C 89.671875 -20.851562 86.289062 -12.664062 79.53125 -6.71875 C 72.78125 -0.769531 63.894531 2.203125 52.875 2.203125 C 41.414062 2.203125 31.578125 -1.101562 23.359375 -7.71875 Z M 18.953125 0 "/></g></g></g></svg>